# xmcd CD database file
#
# Track frame offsets:
#	150
#	18934
#	37579
#	55226
#	78131
#	98280
#	120297
#	139394
#	153667
#	172435
#	193062
#	215332
#	234907
#	256696
#	282034
#
# Disc length: 3958 seconds
#
# Revision: 0
# Processed by: cddbd v1.5.2PL0 Copyright (c) Steve Scherf et al.
# Submitted via: CDex 1.50
#
DISCID=b80f740f
DTITLE=Joe Pass  - In Hamburg 
DYEAR=1997
DGENRE=Jazz
TTITLE0=On a Clear Day
TTITLE1=For Nina
TTITLE2=Polka Dots and Moonbeams
TTITLE3=Love for Sale
TTITLE4=Indian Summer
TTITLE5=Sweet Bossa
TTITLE6=Fragments of Blues
TTITLE7=I'll Know
TTITLE8=Summer Night - The NDR-Radio Orchestra Hannover
TTITLE9=Waltz for Django
TTITLE10=More Than You Know
TTITLE11=Star Eyes
TTITLE12=Lullabye of the Leaves
TTITLE13=Soft Winds
TTITLE14=Sister Sadie
EXTD=YEAR: 1997
EXTT0=
EXTT1=
EXTT2=
EXTT3=
EXTT4=
EXTT5=
EXTT6=
EXTT7=
EXTT8=
EXTT9=
EXTT10=
EXTT11=
EXTT12=
EXTT13=
EXTT14=
PLAYORDER=
